<svg width="89" height="89" viewBox="0 0 89 89" fill="none" xmlns="http://www.w3.org/2000/svg">
<circle cx="44.5" cy="44.5" r="44.5" fill="#2B2929"/>
<path fill-rule="evenodd" clip-rule="evenodd" d="M38.2422 51.7239L39.5899 50.9437C40.2525 50.5601 40.2558 49.6045 39.5959 49.2163L32.0908 44.8016L59.7889 28.5647C61.1077 27.7916 61.1068 25.8848 59.7872 25.113L44.5659 16.2099C44.2572 16.0293 43.8755 16.0274 43.5649 16.2049L27.3111 25.4928C26.9995 25.6708 26.8072 26.0022 26.8072 26.361V44.7699C26.8072 45.1178 26.988 45.4407 27.2846 45.6225L37.2186 51.7111C37.5316 51.9029 37.9245 51.9079 38.2422 51.7239ZM30.1535 41.9837L40.7207 35.8195L30.1535 29.4792V41.9837ZM55.6907 26.6613L45.1236 32.8255V20.321L55.6907 26.6613ZM42.6579 33.5299L32.443 27.3658L42.6579 21.3777V33.5299Z" fill="#EF8329"/>
<path fill-rule="evenodd" clip-rule="evenodd" d="M50.6109 37.8215L49.2632 38.6017C48.6006 38.9853 48.5973 39.9408 49.2572 40.3291L56.7623 44.7438L29.0642 60.9806C27.7454 61.7538 27.7463 63.6606 29.0659 64.4324L44.2872 73.3354C44.596 73.516 44.9777 73.518 45.2882 73.3405L61.5421 64.0526C61.8536 63.8746 62.0459 63.5432 62.0459 63.1844V44.7754C62.0459 44.4275 61.8651 44.1046 61.5685 43.9228L51.6345 37.8343C51.3215 37.6425 50.9286 37.6375 50.6109 37.8215ZM57.9952 47.914L48.1326 53.7259L57.9952 60.0662V47.914ZM32.1056 62.8841L42.6727 56.7199V69.2244L32.1056 62.8841ZM45.4907 56.0154L56.0579 62.5318L46.1952 68.1676L45.4907 56.0154Z" fill="#EF8329"/>
</svg>
